<svg width="256" height="261" viewBox="0 0 256 261" fill="none" xmlns="http://www.w3.org/2000/svg">
<rect width="256" height="256" fill="#0069F1"/>
<rect width="256" height="256" fill="url(#paint0_linear_2232_37226)" fill-opacity="0.15"/>
<rect width="256" height="256" fill="url(#paint1_linear_2232_37226)" fill-opacity="0.2"/>
<g opacity="0.25" filter="url(#filter0_f_2232_37226)">
<path d="M128 164C92.1103 164 63 172.058 63 182.001C63 198.2 115 209 128 209C141 209 193 198.2 193 182.003C193 172.058 163.89 164 128 164Z" fill="#222222"/>
</g>
<path d="M128 54C94.871 54 68 80.681 68 113.602C68 167.239 116 203 128 203C140 203 188 167.239 188 113.608C188 80.681 161.129 54 128 54Z" fill="#E4EAF2"/>
<path d="M128 54C94.871 54 68 80.681 68 113.602C68 167.239 116 203 128 203C140 203 188 167.239 188 113.608C188 80.681 161.129 54 128 54Z" fill="url(#paint2_linear_2232_37226)"/>
<path d="M128 54C94.871 54 68 80.681 68 113.602C68 167.239 116 203 128 203C140 203 188 167.239 188 113.608C188 80.681 161.129 54 128 54Z" fill="url(#paint3_linear_2232_37226)" fill-opacity="0.1"/>
<path d="M128 56C160.037 56 186 81.7983 186 113.608C186 139.81 174.272 161.712 160.985 177.108C154.346 184.802 147.353 190.83 141.316 194.918C138.297 196.963 135.543 198.505 133.218 199.528C130.845 200.572 129.086 201 128 201C126.914 201 125.155 200.572 122.782 199.528C120.457 198.505 117.703 196.963 114.684 194.918C108.647 190.83 101.654 184.802 95.0146 177.108C81.7282 161.711 70 139.807 70 113.603C70 81.7985 95.9627 56 128 56Z" stroke="url(#paint4_linear_2232_37226)" stroke-opacity="0.5" stroke-width="4"/>
<defs>
<filter id="filter0_f_2232_37226" x="11.7" y="112.7" width="232.6" height="147.6" filterUnits="userSpaceOnUse" color-interpolation-filters="sRGB">
<feFlood flood-opacity="0" result="BackgroundImageFix"/>
<feBlend mode="normal" in="SourceGraphic" in2="BackgroundImageFix" result="shape"/>
<feGaussianBlur stdDeviation="1.75" result="effect1_foregroundBlur_2232_37226"/>
</filter>
<linearGradient id="paint0_linear_2232_37226" x1="145.483" y1="1.21526" x2="110.517" y2="254.785" gradientUnits="userSpaceOnUse">
<stop stop-color="white"/>
<stop offset="1" stop-color="white" stop-opacity="0"/>
</linearGradient>
<linearGradient id="paint1_linear_2232_37226" x1="128" y1="0" x2="128" y2="256" gradientUnits="userSpaceOnUse">
<stop stop-opacity="0"/>
<stop offset="1"/>
</linearGradient>
<linearGradient id="paint2_linear_2232_37226" x1="110.802" y1="98.7664" x2="121.364" y2="203.202" gradientUnits="userSpaceOnUse">
<stop stop-color="white"/>
<stop offset="1" stop-color="white" stop-opacity="0"/>
</linearGradient>
<linearGradient id="paint3_linear_2232_37226" x1="128" y1="54" x2="128" y2="203" gradientUnits="userSpaceOnUse">
<stop offset="0.650508" stop-opacity="0"/>
<stop offset="1"/>
</linearGradient>
<linearGradient id="paint4_linear_2232_37226" x1="107.567" y1="61.1137" x2="123.989" y2="229.195" gradientUnits="userSpaceOnUse">
<stop stop-color="white"/>
<stop offset="1" stop-color="#D5D5D5"/>
</linearGradient>
</defs>
</svg>
