<svg width="48" height="48" viewBox="0 0 48 48" fill="none" xmlns="http://www.w3.org/2000/svg">
<g clip-path="url(#clip0_758_11452)">
<path d="M23.9998 0.0848999C18.7077 0.0907221 13.634 2.19545 9.89171 5.93736C6.14943 9.67927 4.04419 14.7528 4.03784 20.0449C4.03784 25.1849 8.01784 33.2289 15.8678 43.9529C16.8024 45.2332 18.026 46.2747 19.439 46.9927C20.8521 47.7107 22.4148 48.085 23.9998 48.085C25.5849 48.085 27.1475 47.7107 28.5606 46.9927C29.9737 46.2747 31.1973 45.2332 32.1318 43.9529C39.9818 33.2289 43.9618 25.1849 43.9618 20.0449C43.9555 14.7528 41.8503 9.67927 38.108 5.93736C34.3657 2.19545 29.292 0.0907221 23.9998 0.0848999ZM23.9998 28.0009C22.4176 28.0009 20.8709 27.5317 19.5553 26.6527C18.2397 25.7736 17.2143 24.5242 16.6088 23.0624C16.0033 21.6006 15.8449 19.992 16.1536 18.4402C16.4622 16.8883 17.2242 15.4629 18.343 14.344C19.4618 13.2252 20.8873 12.4633 22.4391 12.1546C23.991 11.8459 25.5995 12.0044 27.0613 12.6099C28.5231 13.2154 29.7725 14.2407 30.6516 15.5563C31.5306 16.8719 31.9998 18.4187 31.9998 20.0009C31.9998 22.1226 31.157 24.1575 29.6567 25.6578C28.1564 27.158 26.1216 28.0009 23.9998 28.0009Z" fill="url(#paint0_linear_758_11452)"/>
</g>
<defs>
<linearGradient id="paint0_linear_758_11452" x1="11.2463" y1="36.0868" x2="37.6099" y2="12.7763" gradientUnits="userSpaceOnUse">
<stop stop-color="#184CDB"/>
<stop offset="0.5" stop-color="#1389FC"/>
<stop offset="1" stop-color="#7CC2FB"/>
</linearGradient>
<clipPath id="clip0_758_11452">
<rect width="48" height="48" fill="white"/>
</clipPath>
</defs>
</svg>
