<svg width="48" height="48" viewBox="0 0 48 48" fill="none" xmlns="http://www.w3.org/2000/svg">
<path d="M41.9993 24.8354V21.9994C41.9993 17.2255 40.1029 12.6471 36.7273 9.27147C33.3516 5.89581 28.7732 3.99939 23.9993 3.99939C19.2254 3.99939 14.6471 5.89581 11.2714 9.27147C7.89575 12.6471 5.99933 17.2255 5.99933 21.9994V24.8354C3.89442 25.7548 2.17018 27.3707 1.11642 29.4117C0.0626547 31.4526 -0.256383 33.7941 0.212928 36.0426C0.68224 38.2911 1.91129 40.3094 3.69349 41.7585C5.4757 43.2075 7.7024 43.9988 9.99933 43.9994H13.9993V23.9994H9.99933V21.9994C9.99933 18.2864 11.4743 14.7254 14.0998 12.0999C16.7253 9.47438 20.2863 7.99939 23.9993 7.99939C27.7124 7.99939 31.2733 9.47438 33.8988 12.0999C36.5243 14.7254 37.9993 18.2864 37.9993 21.9994V23.9994H33.9993V43.9994H37.9993C40.2963 43.9988 42.523 43.2075 44.3052 41.7585C46.0874 40.3094 47.3164 38.2911 47.7857 36.0426C48.255 33.7941 47.936 31.4526 46.8822 29.4117C45.8285 27.3707 44.1042 25.7548 41.9993 24.8354Z" fill="url(#paint0_linear_758_11442)"/>
<defs>
<linearGradient id="paint0_linear_758_11442" x1="8.66767" y1="34.0009" x2="30.1641" y2="6.58157" gradientUnits="userSpaceOnUse">
<stop stop-color="#184CDB"/>
<stop offset="0.5" stop-color="#1389FC"/>
<stop offset="1" stop-color="#7CC2FB"/>
</linearGradient>
</defs>
</svg>
