<svg width="48" height="48" viewBox="0 0 48 48" fill="none" xmlns="http://www.w3.org/2000/svg">
<g clip-path="url(#clip0_758_11447)">
<path d="M44.4 4.32594C43.2599 3.37467 41.9222 2.68924 40.4841 2.31942C39.046 1.94961 37.5436 1.9047 36.086 2.18794L32.558 3.05194C30.7169 3.38933 29.0524 4.36162 27.8541 5.79959C26.6559 7.23756 25.9998 9.05017 26 10.9219V41.8559C24.6737 42.05 23.3263 42.05 22 41.8559V10.9219C22.0066 9.06743 21.3657 7.26876 20.1878 5.83635C19.0099 4.40394 17.3689 3.42765 15.548 3.07594L11.8 2.16394C10.3583 1.90013 8.87626 1.95644 7.45875 2.3289C6.04124 2.70135 4.72293 3.38083 3.59713 4.31925C2.47133 5.25767 1.56557 6.43208 0.943964 7.75936C0.322356 9.08663 9.76249e-05 10.5343 0 11.9999L0 33.5859C0.000114912 35.9275 0.821953 38.1949 2.32227 39.9927C3.82258 41.7905 5.90622 43.0048 8.21 43.4239L20.782 45.7099C22.9099 46.0966 25.0901 46.0966 27.218 45.7099L39.8 43.4239C42.1019 43.0027 44.1833 41.7875 45.6816 39.9899C47.1799 38.1923 48.0003 35.9261 48 33.5859V11.9999C48.0009 10.5348 47.6788 9.08754 47.0565 7.76113C46.4343 6.43472 45.5273 5.26182 44.4 4.32594Z" fill="url(#paint0_linear_758_11447)"/>
</g>
<defs>
<linearGradient id="paint0_linear_758_11447" x1="8.66667" y1="35.0018" x2="32.7512" y2="7.07058" gradientUnits="userSpaceOnUse">
<stop stop-color="#184CDB"/>
<stop offset="0.5" stop-color="#1389FC"/>
<stop offset="1" stop-color="#7CC2FB"/>
</linearGradient>
<clipPath id="clip0_758_11447">
<rect width="48" height="48" fill="white"/>
</clipPath>
</defs>
</svg>
