<svg width="36" height="36" viewBox="0 0 36 36" fill="none" xmlns="http://www.w3.org/2000/svg">
<path d="M8 7C6.895 7 6 7.895 6 9V27C6 28.105 6.895 29 8 29H14.5C15.88 29 17 30.12 17 31.5V9.5C17 8.12 15.88 7 14.5 7H8ZM21.5 7C20.12 7 19 8.12 19 9.5V31.5C19 30.12 20.12 29 21.5 29H28C29.105 29 30 28.105 30 27V9C30 7.895 29.105 7 28 7H21.5ZM9 11H13V25H9V11ZM23 11H27V25H23V11Z" fill="url(#paint0_linear_book)"/>
<defs>
<linearGradient id="paint0_linear_book" x1="8" y1="28" x2="28" y2="8" gradientUnits="userSpaceOnUse">
<stop stop-color="#184CDB"/>
<stop offset="0.5" stop-color="#1389FC"/>
<stop offset="1" stop-color="#7CC2FB"/>
</linearGradient>
</defs>
</svg>
