<svg width="36" height="36" viewBox="0 0 36 36" fill="none" xmlns="http://www.w3.org/2000/svg">
<path d="M31.4995 18.6265V16.4995C31.4995 12.9191 30.0772 9.48534 27.5454 6.9536C25.0137 4.42186 21.5799 2.99954 17.9995 2.99954C14.4191 2.99954 10.9853 4.42186 8.45356 6.9536C5.92181 9.48534 4.4995 12.9191 4.4995 16.4995V18.6265C2.92082 19.3161 1.62764 20.5281 0.837313 22.0588C0.0469911 23.5895 -0.192288 25.3456 0.159696 27.032C0.51168 28.7183 1.43347 30.2321 2.77012 31.3188C4.10677 32.4056 5.7768 32.9991 7.4995 32.9995H10.4995V17.9995H7.4995V16.4995C7.4995 13.7148 8.60574 11.0441 10.5749 9.07492C12.544 7.10579 15.2147 5.99954 17.9995 5.99954C20.7843 5.99954 23.455 7.10579 25.4241 9.07492C27.3933 11.0441 28.4995 13.7148 28.4995 16.4995V17.9995H25.4995V32.9995H28.4995C30.2222 32.9991 31.8922 32.4056 33.2289 31.3188C34.5655 30.2321 35.4873 28.7183 35.8393 27.032C36.1913 25.3456 35.952 23.5895 35.1617 22.0588C34.3714 20.5281 33.0782 19.3161 31.4995 18.6265Z" fill="url(#paint0_linear_604_249)"/>
<defs>
<linearGradient id="paint0_linear_604_249" x1="6.50076" y1="25.5007" x2="22.6231" y2="4.93618" gradientUnits="userSpaceOnUse">
<stop stop-color="#184CDB"/>
<stop offset="0.5" stop-color="#1389FC"/>
<stop offset="1" stop-color="#7CC2FB"/>
</linearGradient>
</defs>
</svg>
