<svg width="36" height="36" viewBox="0 0 36 36" fill="none" xmlns="http://www.w3.org/2000/svg">
<g clip-path="url(#clip0_801_489)">
<path d="M25.4986 12.0033H10.5008V10.5035C10.4997 6.36203 13.8561 3.00371 17.9976 3.00258C20.7264 3.00181 23.2402 4.48342 24.5612 6.87109C24.9634 7.59541 25.8766 7.85665 26.6009 7.45452C27.3252 7.0524 27.5865 6.13917 27.1843 5.41485C24.3758 0.342358 17.987 -1.49301 12.9145 1.31548C9.57307 3.16547 7.50001 6.68422 7.50128 10.5036V12.6393C4.77173 13.8306 3.00589 16.5241 3.00195 19.5022V28.5009C3.00694 32.6403 6.3614 35.9948 10.5008 35.9998H25.4986C29.638 35.9949 32.9925 32.6403 32.9975 28.5009V19.5022C32.9925 15.3626 29.638 12.0082 25.4986 12.0033ZM19.4995 25.5012C19.4995 26.3295 18.828 27.001 17.9997 27.001C17.1714 27.001 16.5 26.3295 16.5 25.5012V22.5017C16.5 21.6734 17.1714 21.0019 17.9997 21.0019C18.828 21.0019 19.4995 21.6734 19.4995 22.5017V25.5012Z" fill="url(#paint0_linear_801_489)"/>
</g>
<defs>
<linearGradient id="paint0_linear_801_489" x1="8.41781" y1="27.0012" x2="28.1947" y2="9.48387" gradientUnits="userSpaceOnUse">
<stop stop-color="#184CDB"/>
<stop offset="0.5" stop-color="#1389FC"/>
<stop offset="1" stop-color="#7CC2FB"/>
</linearGradient>
<clipPath id="clip0_801_489">
<rect width="36" height="36" fill="white"/>
</clipPath>
</defs>
</svg>
