<svg width="158" height="32" viewBox="0 0 158 32" fill="none" xmlns="http://www.w3.org/2000/svg">
<path d="M114.528 16.4322C114.528 25.1009 106.57 30.8819 104.581 30.8819L104.377 30.8648C102.139 30.5237 94.872 25.0132 94.638 16.8363L94.6327 16.4322C94.6327 11.1108 99.0878 6.79763 104.581 6.79761C110.073 6.79761 114.528 11.11 114.528 16.4322Z" fill="white"/>
<path d="M109.15 16.5074C109.15 14.1965 107.217 12.1162 104.58 12.1162C101.943 12.1162 100.01 14.1974 100.01 16.5074C100.01 19 101.138 21.2166 102.605 22.9073C102.941 23.2939 103.28 23.6352 103.605 23.9288C104.165 24.4356 104.995 24.4356 105.556 23.9288C105.88 23.6352 106.22 23.2939 106.555 22.9073C108.023 21.2166 109.15 18.9996 109.15 16.5074Z" fill="#202020"/>
<path d="M13.9962 2.17399C15.0746 2.17399 16.0347 2.27913 16.8764 2.48954C17.7444 2.67366 18.4813 2.9236 19.0863 3.23924C19.7175 3.52853 20.2304 3.83112 20.6249 4.14671C21.0457 4.43599 21.3483 4.686 21.5324 4.8964C22.1372 5.50129 22.4656 6.01418 22.5182 6.43499C22.5972 6.82954 22.3611 7.36907 21.8087 8.05295C21.2564 8.76307 20.7168 9.15686 20.1908 9.2358C19.691 9.28841 19.1257 9.07815 18.4944 8.60469C18.0736 8.15756 17.652 7.80246 17.2312 7.53944C16.8104 7.25025 16.3371 7.0398 15.8112 6.90832C15.3115 6.77683 14.6934 6.71136 13.957 6.71135C13.4311 6.71135 12.9181 6.78979 12.4185 6.94752C11.945 7.07904 11.5374 7.29028 11.1954 7.57962C10.8535 7.84265 10.5768 8.17094 10.3663 8.56549C10.1822 8.96003 10.09 9.40735 10.09 9.9071C10.09 10.5909 10.2745 11.1563 10.6427 11.6035C11.0372 12.0242 11.5631 12.3794 12.2205 12.6687C12.8781 12.9317 13.615 13.1817 14.4304 13.4184C15.2457 13.6551 16.074 13.9051 16.9156 14.1681C17.7836 14.4574 18.6386 14.7996 19.4803 15.1942C20.322 15.5887 21.0718 16.0886 21.7294 16.6935C22.3869 17.2722 22.9136 18.0082 23.3081 18.9024C23.7026 19.7704 23.899 20.8358 23.8991 22.0982C23.8991 23.5447 23.6232 24.8075 23.071 25.8859C22.5186 26.9643 21.7688 27.846 20.8219 28.5299C19.875 29.2137 18.8226 29.7136 17.6653 30.0293C16.5081 30.3711 15.3375 30.5418 14.154 30.5418C12.9705 30.5418 11.8922 30.397 10.9191 30.1077C9.97215 29.8183 9.13012 29.4504 8.39363 29.0032C7.68347 28.5561 7.07843 28.0958 6.57868 27.6224C6.07892 27.1489 5.71096 26.7145 5.47423 26.32C5.13232 25.8466 4.90815 25.426 4.80294 25.0578C4.69773 24.6896 4.72454 24.3344 4.88232 23.9925C5.06642 23.6243 5.39479 23.2424 5.86819 22.8479C6.34163 22.427 6.77606 22.2168 7.1706 22.2168C7.5914 22.1905 7.98622 22.3086 8.35443 22.5715C8.74896 22.8345 9.12984 23.2035 9.49808 23.677C10.1293 24.5186 10.8396 25.1236 11.6286 25.4919C12.4176 25.8338 13.2072 26.0044 13.9962 26.0044C15.0221 26.0044 15.9167 25.8735 16.6795 25.6105C17.4422 25.3211 18.0344 24.8996 18.4552 24.3473C18.9022 23.795 19.1255 23.0846 19.1255 22.2168C19.1255 21.5069 18.9021 20.9283 18.4552 20.4812C18.0343 20.0077 17.468 19.613 16.7579 19.2974C16.0477 18.9555 15.2452 18.6529 14.351 18.3899C13.4831 18.1006 12.6021 17.7851 11.708 17.4432C11.0767 17.2328 10.4449 16.9829 9.81363 16.6935C9.18257 16.378 8.59107 16.0227 8.03887 15.6283C7.51283 15.2338 7.03871 14.7735 6.61788 14.2475C6.22333 13.6951 5.90794 13.0633 5.67121 12.3532C5.43453 11.6431 5.31648 10.8146 5.31645 9.8679C5.31645 8.36876 5.68455 7.05342 6.4209 5.92245C7.15731 4.76525 8.18314 3.8576 9.49808 3.20004C10.8132 2.51616 12.3129 2.174 13.9962 2.17399Z" fill="white"/>
<path fill-rule="evenodd" clip-rule="evenodd" d="M36.5566 10.5794C37.977 10.5794 39.2267 10.8025 40.3051 11.2497C41.3835 11.6968 42.2781 12.289 42.9883 13.0254C43.7246 13.7355 44.2773 14.5243 44.6455 15.3921C45.04 16.2601 45.2364 17.1021 45.2364 17.9175C45.2364 19.3115 44.8951 20.3242 44.2113 20.9555C43.5538 21.5868 42.7246 21.9022 41.7251 21.9022H31.3097C31.3361 22.7965 31.6118 23.5731 32.1378 24.2307C32.6902 24.8881 33.3746 25.401 34.1899 25.7692C35.0313 26.111 35.8859 26.2817 36.7536 26.2818C37.4112 26.2818 37.9904 26.2421 38.4901 26.1632C39.0162 26.0843 39.4635 25.993 39.8318 25.8878C40.2 25.7563 40.5154 25.6244 40.7784 25.4929C41.0676 25.3614 41.3307 25.2433 41.5673 25.1381C41.804 25.0329 42.0282 24.9665 42.2386 24.9402C42.5278 24.914 42.8167 24.9804 43.1059 25.1381C43.3952 25.2959 43.6323 25.5717 43.8164 25.9662C43.9742 26.2292 44.0793 26.4792 44.132 26.7159C44.2108 26.9263 44.2505 27.1367 44.2505 27.347C44.2505 27.873 43.935 28.373 43.3039 28.8464C42.6726 29.2936 41.7779 29.6615 40.6206 29.9509C39.4896 30.2665 38.1477 30.4242 36.5958 30.4242C34.8864 30.4242 33.3873 30.1484 32.0986 29.5961C30.8361 29.0438 29.7709 28.2939 28.9029 27.347C28.0612 26.3739 27.4165 25.2956 26.9694 24.1121C26.5485 22.9021 26.3383 21.6525 26.3383 20.3636C26.3383 18.4699 26.7718 16.7866 27.6397 15.3137C28.5077 13.8408 29.7048 12.6833 31.2304 11.8416C32.7822 10.9999 34.5576 10.5794 36.5566 10.5794ZM36.5174 14.761C35.5442 14.761 34.6625 14.9584 33.8734 15.3529C33.0845 15.7211 32.4534 16.2341 31.9801 16.8915C31.5329 17.5491 31.3097 18.286 31.3097 19.1014H39.3976C39.8447 19.1014 40.187 19.0349 40.4237 18.9034C40.6601 18.7455 40.7784 18.4299 40.7784 17.9567C40.7784 17.3519 40.5939 16.8131 40.2257 16.3398C39.8575 15.84 39.3576 15.4582 38.7263 15.1951C38.0952 14.9059 37.3589 14.761 36.5174 14.761Z" fill="white"/>
<path d="M94.8073 2.5699C95.2019 2.5699 95.544 2.60957 95.8334 2.68848C96.1489 2.76736 96.399 2.96399 96.5831 3.27942C96.7672 3.56875 96.8594 4.04282 96.8594 4.7004C96.8594 5.35769 96.7671 5.84399 96.5831 6.15961C96.3989 6.44895 96.149 6.63342 95.8334 6.71233C95.5178 6.76492 95.1626 6.79171 94.7681 6.79171H87.5083V27.8204C87.5083 28.2675 87.4558 28.6761 87.3506 29.0444C87.2716 29.3861 87.0612 29.6621 86.7195 29.8725C86.4038 30.0829 85.8643 30.188 85.1015 30.188C84.3916 30.188 83.8656 30.0699 83.5237 29.8333C83.1818 29.6228 82.9715 29.3461 82.8926 29.0042C82.8137 28.636 82.774 28.2282 82.774 27.7812V6.79171H75.4358C75.0677 6.79171 74.7253 6.75199 74.4098 6.67313C74.0942 6.59422 73.8313 6.4097 73.6209 6.12041C73.4368 5.8311 73.3445 5.3579 73.3445 4.7004C73.3445 4.04282 73.4368 3.56875 73.6209 3.27942C73.8049 2.96427 74.0544 2.76744 74.3696 2.68848C74.7115 2.60957 75.0676 2.5699 75.4358 2.5699H94.8073Z" fill="white"/>
<path d="M50.7626 1.78003C51.4991 1.78003 52.0257 1.88516 52.3413 2.09559C52.6832 2.306 52.8936 2.59569 52.9725 2.96386C53.0776 3.30575 53.1302 3.70063 53.1302 4.14769V23.0066C53.1302 23.5062 53.1561 23.927 53.2086 24.2689C53.2875 24.5845 53.4066 24.8483 53.5644 25.0587C53.7484 25.2427 53.9719 25.3738 54.2347 25.4527C54.524 25.5316 54.8662 25.5713 55.2607 25.5713C55.6026 25.5713 55.9052 25.611 56.1682 25.6899C56.4575 25.7688 56.6807 25.9662 56.8385 26.2818C57.0226 26.5974 57.1149 27.1102 57.1149 27.8204C57.1149 28.5568 57.0226 29.0964 56.8385 29.4383C56.6807 29.78 56.4574 29.9906 56.1682 30.0694C55.8789 30.1483 55.5763 30.187 55.2607 30.187C54.2876 30.187 53.4196 30.1216 52.6569 29.9901C51.9205 29.8586 51.2757 29.6353 50.7234 29.3197C50.1973 29.0041 49.7629 28.5826 49.421 28.0565C49.0792 27.5043 48.8161 26.8335 48.6321 26.0446C48.4743 25.2556 48.3959 24.3083 48.3959 23.2036V4.18689C48.3959 3.73974 48.4346 3.345 48.5135 3.00306C48.6187 2.63481 48.83 2.34521 49.1456 2.13479C49.4875 1.89829 50.0265 1.78005 50.7626 1.78003Z" fill="white"/>
<path d="M68.3093 1.78003C68.7564 1.78003 69.1513 1.83264 69.4932 1.93781C69.8614 2.01672 70.151 2.21408 70.3614 2.52972C70.5981 2.84537 70.7162 3.38493 70.7162 4.14769C70.7161 4.85766 70.5981 5.38359 70.3614 5.72547C70.151 6.06742 69.8614 6.27768 69.4932 6.35659C69.125 6.43547 68.7172 6.47517 68.2701 6.47517C67.823 6.47517 67.4282 6.50195 67.0863 6.55455C66.7708 6.58088 66.5077 6.65926 66.2974 6.79073C66.1133 6.92223 65.9685 7.1326 65.8633 7.42184C65.7844 7.71117 65.7457 8.08011 65.7457 8.52727V11.1046L68.9414 11.0125C69.3883 11.0126 69.7825 11.0652 70.1243 11.1703C70.4925 11.2492 70.7821 11.4596 70.9925 11.8014C71.203 12.1171 71.3081 12.6437 71.3081 13.3802C71.3081 14.0639 71.2029 14.5769 70.9925 14.9188C70.7822 15.2605 70.5062 15.4839 70.1645 15.5891C69.8225 15.668 69.4277 15.7077 68.9806 15.7077L65.7457 15.6587V27.8596C65.7457 28.2804 65.6921 28.6751 65.5869 29.0434C65.508 29.3853 65.2977 29.6611 64.9558 29.8715C64.6139 30.0819 64.0751 30.187 63.3388 30.187C62.6286 30.187 62.102 30.0819 61.76 29.8715C61.4447 29.6611 61.247 29.3722 61.1681 29.0042C61.0892 28.6098 61.0506 28.2019 61.0505 27.7812V15.6518L59.314 15.6685C58.6564 15.6422 58.1962 15.4577 57.9332 15.1158C57.6964 14.7475 57.5784 14.1554 57.5784 13.34C57.5785 12.5774 57.7223 12.0247 58.0116 11.6828C58.3272 11.3146 58.8013 11.1311 59.4326 11.1311L61.0505 11.1458V8.60567C61.0505 7.63247 61.1815 6.73784 61.4445 5.92245C61.7075 5.08097 62.1282 4.35762 62.7067 3.75275C63.2853 3.14786 64.0354 2.67468 64.9558 2.33274C65.8763 1.96454 66.9944 1.78007 68.3093 1.78003Z" fill="white"/>
<path d="M149.288 10.3099C149.606 10.3099 149.937 10.3501 150.281 10.4294C150.651 10.4824 151.01 10.5744 151.354 10.7068C151.724 10.8127 152.055 10.9585 152.347 11.1438C152.638 11.3292 152.863 11.5543 153.022 11.8191C153.181 12.0573 153.26 12.3354 153.26 12.653C153.26 13.5003 153.048 14.2157 152.625 14.7982C152.201 15.3805 151.698 15.6713 151.116 15.6714C150.719 15.6714 150.427 15.6322 150.242 15.5528C150.056 15.4735 149.898 15.3803 149.765 15.2745C149.659 15.1686 149.487 15.0756 149.249 14.9962C149.037 14.9168 148.692 14.8776 148.216 14.8776C147.819 14.8776 147.409 14.9433 146.985 15.0756C146.588 15.2079 146.217 15.4067 145.873 15.6714C145.529 15.9362 145.251 16.2807 145.039 16.7043C144.827 17.1014 144.721 17.5646 144.721 18.0939V27.7449C144.721 28.195 144.681 28.6061 144.602 28.9768C144.522 29.3208 144.311 29.599 143.967 29.8107C143.622 30.0225 143.066 30.1282 142.299 30.1282C141.584 30.1282 141.053 30.0088 140.709 29.7705C140.392 29.5588 140.194 29.2677 140.114 28.8974C140.035 28.5267 139.995 28.1156 139.995 27.6655V12.9314C139.995 12.4548 140.035 12.0437 140.114 11.6995C140.194 11.3291 140.392 11.0508 140.709 10.8655C141.053 10.6537 141.597 10.548 142.338 10.548C143.053 10.548 143.57 10.641 143.887 10.8263C144.231 11.0116 144.443 11.2497 144.522 11.5407C144.628 11.8055 144.681 12.0707 144.681 12.3355L144.364 13.0499C144.496 12.8382 144.681 12.5865 144.919 12.2953C145.157 11.9776 145.476 11.6732 145.873 11.382C146.27 11.0643 146.747 10.8127 147.303 10.6274C147.858 10.4156 148.52 10.3099 149.288 10.3099Z" fill="white"/>
<path d="M133.711 10.5804C134.45 10.5804 134.977 10.6859 135.294 10.8969C135.61 11.1079 135.808 11.3979 135.888 11.7671C135.993 12.1365 136.045 12.5328 136.045 12.9549V27.7949C136.045 28.1906 135.993 28.5603 135.888 28.9033C135.808 29.246 135.597 29.5233 135.255 29.7343C134.938 29.9453 134.41 30.0508 133.671 30.0508C133.143 30.0508 132.721 29.9847 132.405 29.8529C132.115 29.7473 131.891 29.6014 131.732 29.4168C131.601 29.2058 131.508 28.9947 131.455 28.7837C131.429 28.5728 131.416 28.3615 131.416 28.1506L131.732 27.0824C131.574 27.3198 131.336 27.6098 131.02 27.9527C130.703 28.2692 130.307 28.5995 129.832 28.9425C129.384 29.2589 128.856 29.5233 128.25 29.7343C127.643 29.9452 126.97 30.0508 126.232 30.0508C125.018 30.0508 123.896 29.8389 122.867 29.4168C121.865 28.9683 120.982 28.3353 120.217 27.5175C119.451 26.6997 118.858 25.7237 118.436 24.5893C118.014 23.455 117.803 22.2019 117.803 20.8301V12.9549C117.803 12.5064 117.842 12.1101 117.921 11.7671C118.001 11.398 118.212 11.1079 118.554 10.8969C118.897 10.6859 119.425 10.5804 120.137 10.5804C120.902 10.5804 121.443 10.6858 121.76 10.8969C122.103 11.1079 122.314 11.398 122.393 11.7671C122.472 12.1364 122.512 12.5457 122.512 12.9941V20.8301C122.512 21.7795 122.67 22.5972 122.986 23.283C123.329 23.9689 123.818 24.5101 124.451 24.9059C125.084 25.2751 125.862 25.4596 126.785 25.4596C127.735 25.4596 128.54 25.2751 129.199 24.9059C129.885 24.5101 130.413 23.9689 130.783 23.283C131.152 22.5709 131.336 21.7532 131.337 20.8301V12.9147C131.337 12.4664 131.376 12.0708 131.455 11.7279C131.534 11.3586 131.745 11.0816 132.088 10.8969C132.431 10.6858 132.972 10.5804 133.711 10.5804Z" fill="white"/>
</svg>
