<svg width="94" height="19" viewBox="0 0 94 19" fill="none" xmlns="http://www.w3.org/2000/svg">
<path d="M69.4863 9.27354C69.4863 14.7601 64.4494 18.4189 63.1902 18.4189L63.0616 18.4081C61.6448 18.1922 57.0455 14.7045 56.8974 9.52931L56.894 9.27354C56.894 5.90558 59.7138 3.17574 63.1902 3.17572C66.6665 3.17572 69.4861 5.90511 69.4863 9.27354Z" fill="#1765FF"/>
<path d="M66.0824 9.32112C66.0823 7.85849 64.8591 6.54187 63.19 6.54187C61.5207 6.54188 60.2976 7.85906 60.2976 9.32112C60.2977 10.8987 61.011 12.3016 61.9401 13.3716C62.1525 13.6163 62.3672 13.8324 62.5727 14.0182C62.9273 14.3389 63.4527 14.3389 63.8073 14.0182C64.0128 13.8324 64.2275 13.6163 64.44 13.3716C65.3691 12.3016 66.0824 10.8985 66.0824 9.32112Z" fill="white"/>
<path d="M5.85838 0.24934C6.54091 0.24934 7.14858 0.315886 7.68129 0.449059C8.23066 0.565592 8.69705 0.723777 9.07995 0.923549C9.4794 1.10665 9.80406 1.29816 10.0537 1.4979C10.32 1.68099 10.5116 1.83922 10.6281 1.97239C11.0109 2.35523 11.2188 2.67984 11.2521 2.94618C11.302 3.19589 11.1526 3.53737 10.803 3.97021C10.4534 4.41964 10.1119 4.66888 9.77897 4.71884C9.46266 4.75214 9.10486 4.61906 8.70532 4.3194C8.43897 4.03641 8.17217 3.81167 7.90582 3.6452C7.63952 3.46216 7.33992 3.32897 7.00708 3.24576C6.69081 3.16253 6.29963 3.12109 5.83357 3.12109C5.50071 3.12109 5.17601 3.17073 4.85978 3.27057C4.56013 3.3538 4.30213 3.4875 4.08571 3.67063C3.8693 3.8371 3.69417 4.04488 3.56099 4.29459C3.44446 4.54431 3.38608 4.82741 3.38608 5.14371C3.38609 5.57651 3.50285 5.93437 3.7359 6.21736C3.98557 6.48368 4.31841 6.70847 4.73449 6.89157C5.15068 7.05805 5.61708 7.21623 6.13315 7.36606C6.64916 7.51587 7.17345 7.6741 7.7061 7.84055C8.25544 8.02366 8.7966 8.24025 9.32929 8.48995C9.86201 8.73966 10.3366 9.05603 10.7528 9.43893C11.1689 9.80516 11.5023 10.271 11.752 10.837C12.0017 11.3863 12.126 12.0606 12.126 12.8596C12.126 13.7751 11.9514 14.5743 11.6019 15.2569C11.2523 15.9394 10.7777 16.4974 10.1784 16.9303C9.57912 17.3631 8.91304 17.6795 8.18059 17.8793C7.44817 18.0956 6.70731 18.2036 5.95824 18.2036C5.20917 18.2036 4.52672 18.112 3.91081 17.9289C3.31149 17.7458 2.77856 17.5129 2.31243 17.2299C1.86296 16.9469 1.48002 16.6556 1.16373 16.3559C0.847424 16.0563 0.614538 15.7813 0.464709 15.5316C0.248307 15.232 0.106427 14.9658 0.0398397 14.7327C-0.026744 14.4997 -0.00978074 14.2749 0.0900798 14.0585C0.206604 13.8255 0.414431 13.5838 0.714049 13.3341C1.0137 13.0677 1.28865 12.9347 1.53836 12.9346C1.80469 12.918 2.05457 12.9927 2.28762 13.1592C2.53732 13.3256 2.77839 13.5592 3.01145 13.8588C3.41094 14.3915 3.86051 14.7744 4.35986 15.0075C4.85927 15.2239 5.35897 15.3319 5.85838 15.3319C6.50764 15.3319 7.07384 15.249 7.55662 15.0826C8.0394 14.8994 8.41415 14.6327 8.68051 14.2831C8.9634 13.9335 9.10476 13.4839 9.10476 12.9346C9.10474 12.4853 8.96333 12.1191 8.68051 11.8362C8.41415 11.5365 8.05573 11.2867 7.60624 11.0869C7.15679 10.8705 6.64888 10.679 6.08291 10.5126C5.53364 10.3295 4.97602 10.1298 4.4101 9.91342C4.01056 9.78024 3.61071 9.62205 3.21117 9.43893C2.81176 9.23921 2.43739 9.01434 2.0879 8.76472C1.75496 8.51502 1.45489 8.22372 1.18854 7.89079C0.938824 7.54119 0.739208 7.14134 0.589379 6.69185C0.43958 6.24243 0.364868 5.7181 0.364849 5.1189C0.364849 4.17008 0.597824 3.33759 1.06387 2.62179C1.52995 1.88938 2.17921 1.31492 3.01145 0.898739C3.84381 0.465908 4.79296 0.249347 5.85838 0.24934Z" fill="#202020"/>
<path fill-rule="evenodd" clip-rule="evenodd" d="M20.1371 5.5692C21.0361 5.5692 21.827 5.71044 22.5096 5.99345C23.1921 6.27646 23.7583 6.65122 24.2078 7.11734C24.6738 7.56676 25.0236 8.06598 25.2566 8.61524C25.5063 9.16461 25.6306 9.69754 25.6306 10.2136C25.6306 11.0958 25.4146 11.7368 24.9819 12.1364C24.5657 12.5359 24.0409 12.7355 23.4083 12.7355H16.8163C16.8329 13.3016 17.0075 13.7931 17.3404 14.2093C17.69 14.6254 18.1232 14.95 18.6392 15.183C19.1717 15.3993 19.7126 15.5074 20.2618 15.5074C20.678 15.5074 21.0445 15.4823 21.3609 15.4324C21.6938 15.3824 21.9769 15.3247 22.21 15.2581C22.443 15.1749 22.6427 15.0914 22.8091 15.0081C22.9922 14.9249 23.1587 14.8502 23.3084 14.7836C23.4583 14.717 23.6001 14.675 23.7333 14.6583C23.9163 14.6417 24.0992 14.6838 24.2822 14.7836C24.4653 14.8835 24.6154 15.058 24.7319 15.3077C24.8318 15.4742 24.8983 15.6324 24.9316 15.7822C24.9815 15.9153 25.0067 16.0485 25.0067 16.1816C25.0067 16.5146 24.807 16.831 24.4075 17.1306C24.008 17.4136 23.4417 17.6465 22.7093 17.8296C21.9934 18.0294 21.1441 18.1292 20.1619 18.1292C19.08 18.1292 18.1312 17.9546 17.3156 17.6051C16.5165 17.2555 15.8423 16.7809 15.293 16.1816C14.7603 15.5657 14.3522 14.8833 14.0692 14.1342C13.8029 13.3684 13.6698 12.5775 13.6698 11.7618C13.6698 10.5632 13.9442 9.49782 14.4935 8.56562C15.0428 7.63337 15.8005 6.9008 16.7661 6.36808C17.7482 5.83537 18.8719 5.56922 20.1371 5.5692ZM20.1123 8.2158C19.4963 8.2158 18.9383 8.34072 18.4389 8.59043C17.9396 8.82347 17.5402 9.14813 17.2405 9.56422C16.9575 9.98041 16.8163 10.4468 16.8163 10.9629H21.9352C22.2182 10.9629 22.4348 10.9208 22.5846 10.8376C22.7343 10.7376 22.8091 10.5379 22.8091 10.2384C22.8091 9.85561 22.6923 9.51463 22.4593 9.21502C22.2262 8.89871 21.9099 8.65705 21.5103 8.49057C21.1109 8.30753 20.6449 8.21581 20.1123 8.2158Z" fill="#202020"/>
<path d="M57.0046 0.49992C57.2543 0.49992 57.4709 0.525027 57.654 0.57497C57.8537 0.624893 58.012 0.749345 58.1285 0.948979C58.245 1.1321 58.3034 1.43215 58.3034 1.84834C58.3034 2.26434 58.245 2.57213 58.1285 2.77189C58.012 2.95501 57.8538 3.07176 57.654 3.12171C57.4543 3.15499 57.2295 3.17195 56.9798 3.17195H52.385V16.4812C52.385 16.7642 52.3517 17.0228 52.2852 17.2559C52.2352 17.4722 52.102 17.6469 51.8857 17.78C51.6859 17.9132 51.3445 17.9797 50.8617 17.9797C50.4124 17.9797 50.0795 17.905 49.8631 17.7552C49.6467 17.622 49.5136 17.4469 49.4637 17.2305C49.4137 16.9974 49.3886 16.7394 49.3886 16.4564V3.17195H44.7442C44.5112 3.17195 44.2945 3.14681 44.0948 3.0969C43.895 3.04696 43.7287 2.93017 43.5955 2.74708C43.479 2.56397 43.4206 2.26448 43.4206 1.84834C43.4206 1.43215 43.479 1.1321 43.5955 0.948979C43.7119 0.749522 43.8699 0.62494 44.0694 0.57497C44.2858 0.525026 44.5111 0.49992 44.7442 0.49992H57.0046Z" fill="#202020"/>
<path d="M29.1282 0C29.5943 0 29.9277 0.0665386 30.1274 0.19972C30.3438 0.332894 30.4769 0.516241 30.5269 0.749259C30.5934 0.965645 30.6267 1.21557 30.6267 1.49852V13.4346C30.6267 13.7507 30.6431 14.0171 30.6763 14.2334C30.7263 14.4332 30.8016 14.6002 30.9015 14.7334C31.018 14.8498 31.1594 14.9328 31.3257 14.9827C31.5089 15.0326 31.7254 15.0578 31.9751 15.0578C32.1915 15.0578 32.383 15.0829 32.5495 15.1328C32.7326 15.1828 32.8739 15.3077 32.9737 15.5074C33.0903 15.7072 33.1487 16.0318 33.1487 16.4812C33.1487 16.9473 33.0903 17.2888 32.9737 17.5052C32.8739 17.7215 32.7325 17.8548 32.5495 17.9047C32.3664 17.9546 32.1749 17.9791 31.9751 17.9791C31.3592 17.9791 30.8099 17.9377 30.3272 17.8544C29.8611 17.7712 29.453 17.6299 29.1034 17.4302C28.7704 17.2304 28.4955 16.9637 28.2791 16.6307C28.0628 16.2812 27.8963 15.8566 27.7798 15.3573C27.6799 14.8579 27.6303 14.2584 27.6303 13.5592V1.52333C27.6303 1.24032 27.6548 0.990486 27.7047 0.774069C27.7713 0.541003 27.905 0.357711 28.1048 0.22453C28.3212 0.0748492 28.6624 1.53518e-05 29.1282 0Z" fill="#202020"/>
<path d="M40.2337 0C40.5167 0 40.7666 0.0332997 40.983 0.0998599C41.2161 0.149803 41.3994 0.274719 41.5325 0.474489C41.6824 0.674265 41.7571 1.01576 41.7571 1.49852C41.757 1.94787 41.6823 2.28073 41.5325 2.49712C41.3994 2.71354 41.2161 2.84661 40.983 2.89656C40.75 2.94648 40.4919 2.97161 40.2089 2.97161C39.926 2.97161 39.6761 2.98856 39.4597 3.02185C39.26 3.03852 39.0935 3.08812 38.9604 3.17133C38.8439 3.25456 38.7522 3.3877 38.6856 3.57077C38.6357 3.75389 38.6112 3.9874 38.6112 4.2704V5.90166L40.6338 5.84335C40.9166 5.84337 41.1661 5.87669 41.3824 5.94321C41.6155 5.99315 41.7988 6.1263 41.932 6.34265C42.0652 6.54242 42.1317 6.87574 42.1317 7.34187C42.1317 7.77457 42.0651 8.09929 41.932 8.31566C41.7989 8.53191 41.6241 8.67331 41.4079 8.73991C41.1915 8.78985 40.9416 8.81495 40.6586 8.81496L38.6112 8.78395V16.506C38.6112 16.7724 38.5773 17.0222 38.5107 17.2553C38.4607 17.4717 38.3276 17.6462 38.1113 17.7794C37.8949 17.9125 37.5538 17.9791 37.0878 17.9791C36.6384 17.9791 36.305 17.9126 36.0886 17.7794C35.889 17.6463 35.764 17.4634 35.714 17.2305C35.6641 16.9808 35.6396 16.7227 35.6396 16.4564V8.7796L34.5405 8.79015C34.1243 8.7735 33.833 8.65674 33.6666 8.44033C33.5167 8.20726 33.442 7.83252 33.442 7.31644C33.4421 6.83377 33.5331 6.48399 33.7162 6.2676C33.916 6.03454 34.216 5.9184 34.6155 5.9184L35.6396 5.92771V4.32002C35.6396 3.70408 35.7224 3.13785 35.8889 2.62179C36.0554 2.0892 36.3216 1.63138 36.6878 1.24856C37.054 0.865715 37.5287 0.566232 38.1113 0.34982C38.6939 0.116779 39.4015 2.53576e-05 40.2337 0Z" fill="#202020"/>
<path d="M91.486 5.39864C91.6871 5.39864 91.8966 5.42407 92.1144 5.47431C92.349 5.50782 92.5757 5.56605 92.7935 5.64984C93.0281 5.71686 93.2375 5.80918 93.4218 5.92647C93.6062 6.04377 93.7486 6.18625 93.8492 6.35382C93.9497 6.50462 93.9999 6.68059 93.9999 6.88165C93.9999 7.4179 93.8661 7.8707 93.598 8.23937C93.3299 8.60791 93.0113 8.79192 92.6428 8.79201C92.3915 8.79201 92.2069 8.7672 92.0896 8.71696C91.9723 8.66672 91.8719 8.60778 91.7881 8.54081C91.7211 8.47379 91.612 8.41493 91.4612 8.36466C91.3272 8.31439 91.1091 8.28961 90.8075 8.28961C90.5562 8.28962 90.2965 8.33115 90.0285 8.4149C89.7771 8.49868 89.5423 8.62445 89.3245 8.79201C89.1066 8.95959 88.9307 9.17763 88.7967 9.44575C88.6626 9.69706 88.5957 9.9902 88.5957 10.3253V16.4335C88.5957 16.7183 88.5703 16.9785 88.52 17.2131C88.4697 17.4308 88.3358 17.6069 88.1181 17.7409C87.9003 17.875 87.5483 17.9419 87.0624 17.9419C86.61 17.9419 86.2743 17.8663 86.0564 17.7155C85.8555 17.5815 85.7302 17.3972 85.6799 17.1629C85.6296 16.9283 85.6042 16.6681 85.6042 16.3832V7.0578C85.6042 6.75616 85.6296 6.496 85.6799 6.27815C85.7302 6.04374 85.8555 5.86757 86.0564 5.75032C86.2742 5.61626 86.6181 5.54936 87.0872 5.54936C87.5397 5.54936 87.8668 5.6082 88.0679 5.72551C88.2855 5.84275 88.4195 5.99348 88.4698 6.17767C88.5368 6.34525 88.5703 6.51311 88.5703 6.68069L88.3693 7.13285C88.4531 6.99882 88.5702 6.83951 88.721 6.65526C88.8718 6.45418 89.0731 6.26151 89.3245 6.07719C89.5758 5.87612 89.8775 5.71689 90.2294 5.5996C90.5813 5.46557 91.0002 5.39865 91.486 5.39864Z" fill="#202020"/>
<path d="M81.6272 5.56982C82.0947 5.56984 82.4286 5.63661 82.6289 5.77016C82.8292 5.9037 82.9547 6.08729 83.0048 6.32094C83.0716 6.55471 83.1046 6.80552 83.1046 7.07268V16.4651C83.1046 16.7155 83.0716 16.9496 83.0048 17.1666C82.9547 17.3835 82.8211 17.559 82.6041 17.6926C82.4037 17.8261 82.0693 17.8929 81.6018 17.8929C81.2679 17.8929 81.0007 17.8511 80.8004 17.7676C80.6168 17.7008 80.4751 17.6085 80.3749 17.4916C80.2915 17.3581 80.2328 17.2245 80.1994 17.0909C80.1827 16.9574 80.1746 16.8237 80.1746 16.6902L80.3749 16.0142C80.2748 16.1644 80.1243 16.348 79.924 16.565C79.7236 16.7653 79.4728 16.9743 79.1723 17.1914C78.8885 17.3917 78.5545 17.559 78.1706 17.6926C77.7866 17.8261 77.3609 17.8929 76.8935 17.8929C76.1254 17.8929 75.4154 17.7588 74.7642 17.4916C74.1298 17.2078 73.5706 16.8071 73.0864 16.2896C72.6022 15.772 72.2266 15.1542 71.9594 14.4363C71.6923 13.7183 71.5587 12.9252 71.5587 12.057V7.07268C71.5587 6.78882 71.5837 6.53801 71.6338 6.32094C71.6839 6.08732 71.8175 5.90369 72.0345 5.77016C72.2515 5.63664 72.5854 5.56982 73.0362 5.56982C73.5204 5.56982 73.8629 5.63658 74.0633 5.77016C74.2802 5.90369 74.4139 6.08734 74.464 6.32094C74.5141 6.55467 74.539 6.8137 74.539 7.09749V12.057C74.539 12.6579 74.639 13.1754 74.8392 13.6095C75.0563 14.0436 75.3658 14.3861 75.7665 14.6366C76.1672 14.8703 76.6596 14.987 77.2439 14.987C77.845 14.987 78.3542 14.8703 78.7716 14.6366C79.2057 14.3861 79.5401 14.0436 79.7739 13.6095C80.0076 13.1587 80.1243 12.6412 80.1244 12.057V7.04725C80.1244 6.76352 80.1493 6.51312 80.1994 6.29613C80.2495 6.0624 80.3831 5.88704 80.6001 5.77016C80.8172 5.63658 81.1597 5.56982 81.6272 5.56982Z" fill="#202020"/>
</svg>
