<svg width="21" height="24" viewBox="0 0 21 24" fill="none" xmlns="http://www.w3.org/2000/svg">
<path d="M9.80482 11.4617L0.0895996 22.0059C0.0905121 22.0078 0.090512 22.0106 0.0914244 22.0125C0.389807 23.1574 1.41179 24 2.62539 24C3.11083 24 3.56616 23.8656 3.95671 23.6305L3.98773 23.6118L14.9229 17.1593L9.80482 11.4617Z" fill="#EA4335"/>
<path d="M19.6332 9.66619L19.624 9.65966L14.9029 6.86123L9.58398 11.7013L14.922 17.1582L19.6177 14.3878C20.4407 13.9324 21.0001 13.045 21.0001 12.0223C21.0001 11.0052 20.4489 10.1225 19.6332 9.66619Z" fill="#FBBC04"/>
<path d="M0.0894234 1.99325C0.0310244 2.21346 0 2.44488 0 2.68376V21.3163C0 21.5552 0.0310245 21.7866 0.0903359 22.0059L10.1386 11.7313L0.0894234 1.99325Z" fill="#4285F4"/>
<path d="M9.87666 12L14.9044 6.85945L3.98201 0.383598C3.58508 0.140054 3.12154 8.67844e-05 2.62606 8.67844e-05C1.41246 8.67844e-05 0.38865 0.84456 0.0902675 1.99043C0.0902675 1.99136 0.0893555 1.9923 0.0893555 1.99323L9.87666 12Z" fill="#34A853"/>
</svg>
