<svg width="36" height="36" viewBox="0 0 36 36" fill="none" xmlns="http://www.w3.org/2000/svg">
<path d="M11.767 12.6844C12.0865 12.2938 12.4732 11.9595 12.7917 11.5732C15.087 8.78911 15.7236 5.21946 16.4786 1.77641C16.6299 1.08654 17.0921 0.0575203 17.9049 0.00117548C19.5453 -0.0647538 19.7112 2.65988 20.0188 3.8357C20.6885 7.07677 21.9031 11.0152 24.6767 13.0212C26.8786 14.6137 29.6879 15.4153 32.2908 16.0206C33.4258 16.2845 35.8234 16.4209 35.9938 17.9426C36.0897 18.799 35.0506 19.3859 34.3523 19.5505C31.3145 20.2454 28.1857 20.845 25.4645 22.4718C25.3536 22.5381 25.1455 22.6724 25.0322 22.7197C24.7655 22.9158 24.4853 23.1151 24.2337 23.3293C23.1143 24.4139 22.937 24.7274 22.0951 26.0463C21.8603 26.4992 21.4029 27.5481 21.1662 27.8872C20.9553 28.5038 20.742 29.1186 20.5231 29.7323C20.429 29.9961 20.3696 30.313 20.279 30.5733C20.0678 31.5275 20.1464 32.3848 19.8113 33.3916C19.5368 34.2166 19.5582 35.2531 18.6867 35.8153C18.4338 35.9898 18.1067 36.04 17.8069 35.9686C17.7466 35.9541 17.6868 35.9375 17.6274 35.9193C16.5491 35.7015 16.3005 33.7588 16.1969 32.8327C15.8513 31.6611 15.7424 30.1199 15.3183 28.7755C14 24.5975 11.9417 22.2862 7.84225 20.9095C7.28292 20.7216 6.56837 20.6561 5.9913 20.5012C5.26295 20.2856 4.46453 20.1792 3.74103 19.9879C2.65342 19.7003 0.139206 19.5821 0.00589369 18.1075C-0.0263287 17.7823 0.0745459 17.4579 0.284681 17.211C0.848583 16.5432 2.77602 16.1456 3.60512 16.0718C4.91664 15.7502 6.2033 15.4994 7.48096 15.0326C7.95541 14.8593 8.47302 14.6843 8.95439 14.5401C9.57117 14.3358 10.5379 13.7891 11.0368 13.3623C11.2809 13.1535 11.5102 12.9014 11.767 12.6844Z" fill="url(#paint0_linear_604_164)"/>
<defs>
<linearGradient id="paint0_linear_604_164" x1="6.5" y1="27.0014" x2="26.3854" y2="5.86212" gradientUnits="userSpaceOnUse">
<stop stop-color="#184CDB"/>
<stop offset="0.5" stop-color="#1389FC"/>
<stop offset="1" stop-color="#7CC2FB"/>
</linearGradient>
</defs>
</svg>
