<svg width="16" height="16" viewBox="0 0 16 16" fill="none" xmlns="http://www.w3.org/2000/svg">
<g clip-path="url(#clip0_604_125)">
<path fill-rule="evenodd" clip-rule="evenodd" d="M15.1643 3.22263C15.4126 3.47247 15.5909 3.78313 15.6813 4.12353C16.0159 5.37989 16.0159 7.99989 16.0159 7.99989C16.0159 7.99989 16.0159 10.6199 15.6813 11.8763C15.5909 12.2166 15.4126 12.5273 15.1643 12.7771C14.9161 13.027 14.6066 13.2073 14.2668 13.2999C13.0159 13.6363 8.01587 13.6363 8.01587 13.6363C8.01587 13.6363 3.01587 13.6363 1.76496 13.2999C1.42516 13.2073 1.11564 13.027 0.867394 12.7771C0.619147 12.5273 0.440873 12.2166 0.350415 11.8763C0.0158692 10.6199 0.0158691 7.99989 0.0158691 7.99989C0.0158691 7.99989 0.0158692 5.37989 0.350415 4.12353C0.440873 3.78313 0.619147 3.47247 0.867394 3.22263C1.11564 2.97279 1.42516 2.79253 1.76496 2.69989C3.01587 2.36353 8.01587 2.36353 8.01587 2.36353C8.01587 2.36353 13.0159 2.36353 14.2668 2.69989C14.6066 2.79253 14.9161 2.97279 15.1643 3.22263ZM10.5613 7.99991L6.37952 5.62082V10.379L10.5613 7.99991Z" fill="white"/>
</g>
<defs>
<clipPath id="clip0_604_125">
<rect width="16" height="16" fill="white"/>
</clipPath>
</defs>
</svg>
